<svg xmlns="http://www.w3.org/2000/svg" viewBox="0 0 600 640" fill="none">
  <g fill="#6b2137">
    <path d="M 300.0,55.0 L 336.7,196.3 L 462.6,122.4 L 388.7,248.3 L 530.0,285.0 L 388.7,321.7 L 462.6,447.6 L 336.7,373.7 L 300.0,515.0 L 263.3,373.7 L 137.4,447.6 L 211.3,321.7 L 70.0,285.0 L 211.3,248.3 L 137.4,122.4 L 263.3,196.3 Z"/>
  </g>
  <!-- legs -->
  <g stroke="#6b2137" stroke-width="13" stroke-linecap="round" fill="none">
    <path d="M256 470 C 244 540, 236 568, 240 596"/>
    <path d="M344 470 C 356 540, 364 568, 360 596"/>
  </g>
  <g fill="#6b2137">
    <circle cx="240" cy="604" r="13"/>
    <circle cx="360" cy="604" r="13"/>
  </g>
  <path d="M238 252 Q 255 270 272 252" stroke="#fffde9" stroke-width="13" stroke-linecap="round" fill="none"/>
  <ellipse cx="345" cy="250" rx="17" ry="23" fill="#fffde9"/>
  <path d="M250 300 Q 300 340 350 300" stroke="#fffde9" stroke-width="14" stroke-linecap="round" fill="none"/>
</svg>